<svg xmlns="http://www.w3.org/2000/svg" width="63" height="46" fill="none"><path fill="#8E8F99" d="M4.8 38.4c.2.2.4.6.4 1 0 .2 0 .4-.2.6 0 .2-.2.4-.4.6-.5.3-1 .4-1.7.4H0V35h2.9c.5 0 1 0 1.6.4l.4.5.1.6c0 .4 0 .7-.3 1-.2.2-.6.4-.9.4.4.1.7.3 1 .6Zm-3.4-1h1.2c.3 0 .5 0 .8-.2l.2-.2v-.7l-.2-.3-.8-.2H1.4v1.6Zm2 2.4c.2 0 .3-.2.3-.3v-.7l-.2-.3-.9-.2H1.4V40h1.3c.3 0 .5 0 .8-.2ZM10.6 41l-1.5-2.4h-.6V41H7V35h2.6c.6 0 1.3.1 1.8.5.4.3.6.8.6 1.2 0 .5-.1 1-.4 1.3-.3.4-.8.6-1.3.7l1.7 2.4h-1.5Zm-2.1-3.2h1c.9 0 1.2-.3 1.2-1v-.3a1 1 0 0 0-.2-.3c-.3-.2-.6-.3-1-.3h-1v1.9ZM18.1 39.8h-2.7L15 41h-1.4l2.5-6h1.6l2.5 6h-1.5l-.5-1.2Zm-.3-1-1-2.5-1 2.5h2ZM27.5 41h-1.3l-3-4.2V41h-1.4V35H23l3 4.2v-4.2h1.4V41ZM35.3 39.5c-.3.5-.7.9-1.2 1.1-.6.3-1.3.4-2 .4h-2.4V35h2.4c.7 0 1.4 0 2 .4.5.2 1 .6 1.2 1a3.3 3.3 0 0 1 0 3.2Zm-1.6-.1a2.1 2.1 0 0 0 0-3c-.4-.3-1-.5-1.7-.5h-1v4h1c.7 0 1.3-.1 1.7-.5ZM19 .8s17.6 6 17.2 14.6V30S18.6 24 19 15.4V.8ZM51.8 26.6c3.4-2 7.2-3.4 11.2-3.7v-4.6a22.5 22.5 0 0 0-11.2 8.3Z"/><path fill="#8E8F99" d="M49.8 28c2.8-5 7.5-8.8 13.2-10.7V4.2S38 12.7 38.5 25v20.8l2.9-1.1v-2a21 21 0 0 1 8.4-14.8Z"/><path fill="#8E8F99" d="M47.5 35.7c.1-1.5.4-2.9.8-4.3A19.1 19.1 0 0 0 43 44l4.9-2.3c-.5-2-.6-4-.4-6ZM48.5 35.8c-.2 1.8-.1 3.6.3 5.4C55.6 37.5 63.3 31.8 63 25v-.6c-4.9.5-9.5 2.4-13 5.4-.8 2-1.4 4-1.5 6Z"/></svg>