<svg xmlns="http://www.w3.org/2000/svg" width="44" height="41" fill="none"><path fill="#8E8F99" d="M6.8 40.2H7l.2.3-.6.4-.9.1-.8-.1c-.3-.1-.5-.2-.6-.4-.2-.2-.4-.4-.4-.6a1.9 1.9 0 0 1 0-1.5c0-.2.2-.4.4-.5l.7-.4a2.6 2.6 0 0 1 1.6 0l.6.3-.2.2h-.4a1.6 1.6 0 0 0-.8-.2h-.6l-.5.4-.3.4-.1.6.1.6a1.3 1.3 0 0 0 .8.7H6a1.3 1.3 0 0 0 .7-.2h.1ZM13.2 39.2c0 .2 0 .5-.2.7 0 .2-.2.4-.4.6a2 2 0 0 1-.6.4h-1.7a2 2 0 0 1-.7-.4l-.4-.6c-.2-.5-.2-1 0-1.5l.4-.5.7-.4c.5-.2 1.1-.2 1.7 0 .2 0 .4.2.6.4a1.7 1.7 0 0 1 .6 1.3Zm-.6 0-.1-.6a1.2 1.2 0 0 0-.8-.7 2 2 0 0 0-1.2 0l-.4.2c-.2.2-.3.3-.3.5-.2.4-.2.8 0 1.2a1.2 1.2 0 0 0 .7.7h1.2c.2 0 .4-.2.5-.3l.3-.4.1-.6ZM17.5 39.8v.1l.2-.1v-.1l1.4-2.2h.1l.1-.1h.5V41h-.5V38l-1.5 2.2v.1h-.4L15.9 38V41h-.5v-3.6h.6l1.5 2.3v.1ZM22.8 39.6V41h-.5v-3.6h1.9l.5.3.3.3v.5a1 1 0 0 1-.3.8l-.5.2-.7.1h-.7Zm0-.4H24c.2 0 .3-.1.3-.2l.2-.2.1-.3v-.3l-.2-.2c-.3-.2-.5-.2-.8-.2h-.7v1.4ZM30.3 41h-.5l-.2-.2-.3-.8h-2l-.3.8v.1H26.3l1.6-3.5h.6l1.7 3.6Zm-2.8-1.4h1.6l-.7-1.4v-.3l-.2.1v.2l-.7 1.4ZM32.6 37.4h.1l2.4 2.8V37.4h.5V41H35.3l-.1-.1-2.4-2.7V41h-.5v-3.6h.3ZM39.7 39.5V41h-.5v-1.5l-1.6-2.1h.6l.1.1 1 1.4a2.1 2.1 0 0 1 .1.3l.1-.1.1-.2 1-1.4.1-.1h.5l-1.5 2.1ZM17.3 31.4h.7c3.7-1.3 6.9-3.7 9-6.6 2.2-3 3.4-6.4 3.3-9.9l-4.1-3.5c.8 3.7.4 7.6-1.2 11.1a21 21 0 0 1-7.7 9Z"/><path fill="#8E8F99" d="M15.8 31.3h.1c3.8-2.3 6.6-5.5 8.2-9.2a17 17 0 0 0 .8-11.6l-5.9-5a21.1 21.1 0 0 1-3.2 25.8ZM35.6 19a18 18 0 0 1-6.9 9.9 22 22 0 0 1-3.2 2c2.8-.7 5.4-2 7.6-3.7 2.1-1.7 3.8-3.8 4.9-6.1l-2.4-2Z"/><path fill="#8E8F99" d="m34.7 18.5-3.4-3c0 3.4-1.1 6.6-3.2 9.4-2 2.8-4.8 5.1-8.2 6.6h2.3a21 21 0 0 0 8.1-5.2c2.2-2.3 3.7-5 4.4-7.8ZM16.3 3.4l-4-3.4a19 19 0 0 0-9 6C1.3 8.7 0 12 0 15.2a15 15 0 0 0 4 10c2.7 3 6.4 5 10.5 5.9 3.7-3.9 5.9-8.6 6.2-13.6.3-5-1.2-9.9-4.4-14ZM44 18c0-4.4-2-8.5-5.6-11.6A21.8 21.8 0 0 0 18 2.7l24.6 21A14 14 0 0 0 44 18Z"/></svg>