<svg aria-hidden="true" style="position: absolute; width: 0; height: 0; overflow: hidden;" version="1.1" xmlns="http://www.w3.org/2000/svg" xmlns:xlink="http://www.w3.org/1999/xlink">
<defs>
<symbol id="icon-antenna" viewBox="0 0 40 40">
    <path fill="#2e2f42" style="fill: var(--color1, #2e2f42)" d="M38.438 27.625l-10.5-10.625 1.125-5.75 1 0.125c0.006 0 0.012 0 0.019 0 1.484 0 2.688-1.203 2.688-2.688s-1.203-2.688-2.688-2.688c-1.484 0-2.688 1.203-2.688 2.688 0 0.337 0.062 0.659 0.175 0.956l-0.006-0.018-6.25 0.75-10.063-10.188c-0.111-0.114-0.266-0.185-0.437-0.188h-0c-0.015-0.001-0.033-0.002-0.052-0.002-0.176 0-0.335 0.073-0.448 0.189l-1.875 1.875c-0.13 0.115-0.212 0.282-0.212 0.469s0.082 0.354 0.211 0.468l0.001 0.001 0.938 1.063c-1.402 2.559-2.227 5.606-2.227 8.847 0 5.224 2.143 9.947 5.599 13.338l0.003 0.003-0.063 0.625v7.812h-8c-1.875 0-3.375 1.5-3.375 3.313v1.313c0 0.375 0.313 0.688 0.688 0.688h30.625c0.438 0 0.688-0.313 0.688-0.625v-1.375c0-1.875-1.437-3.312-3.312-3.312h-8v-3.438c1.119 0.237 2.405 0.373 3.723 0.373 3.262 0 6.329-0.833 9-2.297l-0.098 0.049 1 1.063c0.125 0.125 0.313 0.188 0.5 0.188s0.313 0 0.438-0.188l1.875-1.875c0.313-0.25 0.313-0.625 0-0.938zM29.063 7.813c0.236-0.23 0.559-0.372 0.916-0.372 0.725 0 1.313 0.588 1.313 1.313 0 0.695-0.541 1.264-1.224 1.31l-0.004 0c-0.006 0-0.012 0-0.019 0-0.725 0-1.313-0.588-1.313-1.313 0-0.367 0.151-0.699 0.394-0.937l0-0zM27.5 12.188l-0.625 3.688-1.563-1.5 2.188-2.188zM26.75 11.063l-2.375 2.375-1.875-1.875 4.25-0.5zM30 36c1.125 0 2 0.875 2 2v0.625h-29.375v-0.625c0-1.125 0.938-2 2.063-2h25.313zM20.625 33.313v1.375h-6.563v-1.375h6.688zM14 32v-5.063c0-1.625 1.5-2.938 3.313-2.938 1.875 0 3.375 1.313 3.375 2.938v5.063h-6.687zM22 29.875v-2.938c0-2.375-2.063-4.25-4.688-4.25-0.019-0-0.041-0-0.063-0-1.672 0-3.142 0.864-3.989 2.169l-0.011 0.019c-2.954-3.099-4.771-7.305-4.771-11.935 0-2.876 0.701-5.587 1.942-7.974l-0.045 0.096 23.25 23.375c-3.563 1.813-7.688 2.313-11.625 1.438zM36.125 29l-0.938-0.875-24.438-24.625-0.938-1 0.938-0.937 9.938 10 16.375 16.438-0.938 0.938z"></path>
    <path fill="#4d5ae5" style="fill: var(--color2, #4d5ae5)" d="M17.375 25.313c-1.105 0-2 0.895-2 2s0.895 2 2 2v0c1.105 0 2-0.895 2-2s-0.895-2-2-2v0zM17.813 27.813c-0.098 0.067-0.219 0.106-0.349 0.106-0.345 0-0.625-0.28-0.625-0.625 0-0.292 0.2-0.536 0.47-0.606l0.004-0.001c0.045-0.012 0.097-0.019 0.151-0.019 0.345 0 0.625 0.28 0.625 0.625 0 0.215-0.109 0.405-0.274 0.517l-0.002 0.001z"></path>
</symbol>
<symbol id="icon-astronaut" viewBox="0 0 40 40">
    <path fill="#4d5ae5" style="fill: var(--color2, #4d5ae5)" d="M40 5.625c-0.082-0.256-0.318-0.438-0.596-0.438-0.010 0-0.020 0-0.030 0.001l0.001-0-2.313-0.313-1.063-2.188c-0.25-0.438-1-0.438-1.25 0l-1 2.188-2.375 0.313c-0.345 0-0.625 0.28-0.625 0.625 0 0.204 0.098 0.385 0.248 0.499l0.002 0.001 1.75 1.688-0.438 2.375c-0.078 0.103-0.125 0.234-0.125 0.375 0 0.345 0.28 0.625 0.625 0.625 0.204 0 0.385-0.098 0.499-0.248l0.001-0.002 2.125-1.125 2.125 1.125c0.115 0.152 0.296 0.25 0.5 0.25 0.345 0 0.625-0.28 0.625-0.625 0-0.141-0.047-0.272-0.126-0.377l0.001 0.002-0.438-2.375 1.75-1.688c0.188-0.125 0.25-0.437 0.125-0.625zM36.875 7.313c-0.128 0.115-0.208 0.281-0.208 0.466 0 0.057 0.008 0.112 0.022 0.164l-0.001-0.004 0.25 1.375-1.25-0.625c-0.090-0.053-0.197-0.084-0.313-0.084s-0.223 0.031-0.315 0.085l0.003-0.002-1.25 0.625 0.25-1.438c0-0.188 0-0.437-0.187-0.563l-1-1 1.375-0.188c0.187 0 0.375-0.188 0.5-0.375l0.625-1.25 0.625 1.25c0.125 0.188 0.313 0.313 0.5 0.375l1.375 0.188-1 1zM32.688 25.625h-1.438v1.375h1.375v-1.375zM32.688 28.313h-1.438v1.313h1.375v-1.25zM34 27h-1.313v1.313h1.313v-1.313z"></path>
    <path fill="#4d5ae5" style="fill: var(--color2, #4d5ae5)" d="M31.313 27h-1.313v1.313h1.313v-1.313zM28 33h-1.313v1.313h1.313v-1.313zM28 35.625h-1.313v1.375h1.313v-1.375zM29.375 34.375h-1.375v1.25h1.313v-1.25zM26.688 34.375h-1.375v1.25h1.375v-1.25zM20 30.313h-1.313v1.313h1.313v-1.25zM20 33h-1.313v1.313h1.313v-1.313zM21.313 31.625h-1.313v1.375h1.313v-1.375z"></path>
    <path fill="#4d5ae5" style="fill: var(--color2, #4d5ae5)" d="M18.688 31.625h-1.375v1.375h1.438v-1.375zM7.313 7.625h-1.313v1.375h1.313v-1.375zM7.313 10.313h-1.313v1.313h1.313v-1.25zM8.688 9h-1.375v1.313h1.438v-1.313zM6 9h-1.313v1.313h1.313v-1.313z"></path>
    <path fill="#2e2f42" style="fill: var(--color1, #2e2f42)" d="M30.875 17.688c-0.338-0.461-0.844-0.782-1.425-0.873l-0.012-0.002c-0.625-0.063-1.25 0.063-1.688 0.438l-1.563 1.25-2.375 1.75-1.688-0.688c2.99-1.416 5.020-4.409 5.020-7.876 0-4.761-3.83-8.628-8.577-8.687l-0.006-0c-4.783 0.065-8.635 3.957-8.635 8.749 0 1.714 0.493 3.312 1.344 4.662l-0.021-0.036h-3.5c-0.028-0.004-0.061-0.007-0.094-0.007s-0.066 0.003-0.097 0.008l0.004-0h-0.062l-4.063 2-2.375 1.125-0.063 0.063c-0.511 0.416-0.835 1.045-0.835 1.749 0 1.243 1.007 2.25 2.25 2.25 0.324 0 0.633-0.069 0.912-0.192l-0.014 0.006 1.688-0.875 2.875-1.437h1.688l-6.813 6.688-1.688 1.688c-0.379 0.374-0.614 0.894-0.614 1.469s0.235 1.094 0.614 1.469l0 0c0.374 0.379 0.894 0.614 1.469 0.614s1.094-0.235 1.469-0.614l0-0 1.688-1.625 2.125-1.625 1.125 1.125-3.875 3.875c-0.379 0.374-0.614 0.894-0.614 1.469s0.235 1.094 0.614 1.469l0 0c0.377 0.399 0.909 0.647 1.5 0.647s1.123-0.248 1.499-0.646l0.001-0.001 1.625-1.688 3.938-3.938 6.563-7.063 4.375 0.625c0.011 0.001 0.024 0.001 0.038 0.001 0.1 0 0.195-0.024 0.278-0.065l-0.004 0.002 0.125-0.063 4-2.687h0.125l1.5-1.563c0.42-0.409 0.681-0.981 0.681-1.613 0-0.498-0.162-0.958-0.436-1.331l0.004 0.006zM2.688 22.188c-0.25 0.125-0.5 0.188-0.75 0.063-0.368-0.109-0.631-0.444-0.631-0.84 0-0.299 0.15-0.562 0.378-0.72l0.003-0.002 1.625-0.688 0.438 1.125 0.125 0.5-1.25 0.625zM7.063 19.938l-1.937 1-0.375-0.938-0.188-0.625 2.5-1.25v1.813zM25.938 11.625c0 1.188-0.313 2.25-0.75 3.25l-5.25-2.375c0-0.75-0.438-1.375-1-1.75l1.875-6.063c2.938 0.938 5.125 3.75 5.125 6.938zM11.188 11.625c0.037-4.045 3.325-7.31 7.375-7.31 0.331 0 0.656 0.022 0.975 0.064l-0.037-0.004-1.875 5.938c-1.25 0-2.375 1.063-2.375 2.313-0.003 0.045-0.005 0.098-0.005 0.152 0 1.277 1.035 2.313 2.313 2.313 0.899 0 1.679-0.514 2.061-1.263l0.006-0.013 4.813 2.188c-1.361 1.78-3.485 2.917-5.875 2.917-4.044 0-7.328-3.255-7.374-7.288l-0-0.004zM18.625 12.625c0 0.625-0.438 1-1 1-0.625 0-1-0.438-1-1 0-0.5 0.438-1 1-1s1 0.5 1 1zM3.063 31.375c-0.25 0.375-0.75 0.375-1.063 0-0.119-0.132-0.191-0.308-0.191-0.5s0.072-0.368 0.192-0.501l-0.001 0.001 1.25-1.25 1 1.125-1.125 1.188zM7.125 36.125c-0.313 0.25-0.813 0.25-1.125 0-0.136-0.136-0.221-0.324-0.221-0.531s0.084-0.395 0.221-0.531l1.25-1.25 0.5 0.562 0.563 0.5-1.25 1.25zM11.5 31.75l-2.25 2.188-0.5-0.5-0.625-0.563 2.25-2.188 0.125-0.125v-0.063l0.063-0.188v-0.313c-0.032-0.073-0.074-0.135-0.125-0.188l-2.062-2.062h-0.063l-0.125-0.125h-0.625v0.063l-2.313 1.688-1.125-1.125 3-3 5.437 5.375-1.187 1.125zM20 23h-0.063c-0.027-0.004-0.058-0.006-0.090-0.006-0.104 0-0.202 0.026-0.289 0.071l0.003-0.002-0.125 0.125-5.938 6.438-5.375-5.25 3.5-3.5c0.244-0.092 0.414-0.323 0.414-0.594 0-0.349-0.283-0.633-0.633-0.633-0.079 0-0.154 0.014-0.223 0.040l0.004-0.001h-2.813v-1.938h3.938c1.581 1.631 3.793 2.643 6.24 2.643 0.556 0 1.099-0.052 1.626-0.152l-0.054 0.009 0.188 0.063 3 1.25 0.187 0.938 0.25 1.063-3.75-0.5zM25 23.188l-0.375-1.875 1.875-1.375 0.438 0.625 0.688 0.938-2.625 1.625zM29.688 19.688l-0.938 0.938-1.25-1.5 1.063-0.813c0.188-0.125 0.438-0.188 0.625-0.188 0.466 0.022 0.835 0.405 0.835 0.874 0 0.279-0.13 0.527-0.333 0.687l-0.002 0.001z"></path>
    <path fill="#2e2f42" style="fill: var(--color1, #2e2f42)" d="M17 23.125l-2.688-2.625c-0.115-0.13-0.282-0.212-0.469-0.212s-0.354 0.082-0.468 0.211l-0.001 0.001-2.688 2.687c-0.13 0.115-0.212 0.282-0.212 0.469s0.082 0.354 0.211 0.468l0.001 0.001 2.688 2.687c0.115 0.13 0.282 0.212 0.469 0.212s0.354-0.082 0.468-0.211l0.001-0.001 2.688-2.687c0.13-0.115 0.212-0.282 0.212-0.469s-0.082-0.354-0.211-0.468l-0.001-0.001zM13.875 25.375l-1.75-1.75 1.75-1.688 1.688 1.688-1.688 1.75zM21.438 6.313l-0.313 1.313c0.125 0 2.188 0.625 2.188 2.688h1.313c0-2.5-2.063-3.75-3.125-4zM24.625 11.625h-1.313v1.375h1.313v-1.375z"></path>
</symbol>
<symbol id="icon-clock" viewBox="0 0 40 40">
    <path fill="#2e2f42" style="fill: var(--color1, #2e2f42)" d="M39.125 19.125c0-0.009 0-0.019 0-0.029 0-10.562-8.563-19.125-19.125-19.125s-19.125 8.563-19.125 19.125c0 8.555 5.617 15.798 13.364 18.242l0.135 0.037c0.188 0 0.313 0 0.437-0.125 0.188-0.063 0.313-0.25 0.375-0.438l4.812-15.313c1.311-0.001 2.373-1.064 2.373-2.375s-1.063-2.375-2.375-2.375c-0.387 0-0.752 0.092-1.074 0.256l0.014-0.006-6.375-6.438c-0.126-0.083-0.28-0.133-0.446-0.133-0.449 0-0.813 0.364-0.813 0.813 0 0.166 0.050 0.32 0.135 0.449l-0.002-0.003 6.375 6.438c-0.141 0.295-0.223 0.64-0.223 1.005 0 0.757 0.354 1.431 0.906 1.866l0.005 0.004-4.625 14.563c-6.719-2.546-11.409-8.928-11.409-16.406 0-9.665 7.835-17.5 17.5-17.5s17.5 7.835 17.5 17.5c0 7.072-4.194 13.164-10.231 15.924l-0.109 0.045-0.5-2.313c-0.087-0.362-0.408-0.627-0.791-0.627-0.199 0-0.381 0.072-0.523 0.19l0.001-0.001-4.813 4.25c-0.162 0.149-0.262 0.362-0.262 0.598 0 0.364 0.239 0.672 0.569 0.775l0.006 0.002 6.062 2c0.058 0.015 0.124 0.023 0.192 0.023 0.449 0 0.812-0.364 0.812-0.813 0-0.030-0.002-0.060-0.005-0.089l0 0.004-0.5-2.313c6.924-2.96 11.688-9.713 11.688-17.578 0-0.016-0-0.033-0-0.049v0.003zM20 18.313c0.449 0 0.813 0.364 0.813 0.813s-0.364 0.813-0.813 0.813v0c-0.449 0-0.813-0.364-0.813-0.813s0.364-0.813 0.813-0.813v0zM22.625 36.938l2.75-2.5 0.75 3.563-3.5-1.063z"></path>
    <path fill="#4d5ae5" style="fill: var(--color2, #4d5ae5)" d="M19.188 4v1.563c0 0.449 0.364 0.813 0.813 0.813s0.813-0.364 0.813-0.813v-1.563c0-0.449-0.364-0.812-0.813-0.812s-0.813 0.364-0.813 0.812v0zM4.875 18.313c-0.449 0-0.813 0.364-0.813 0.813s0.364 0.813 0.813 0.813v0h1.563c0.449 0 0.813-0.364 0.813-0.813s-0.364-0.813-0.813-0.813v0h-1.563zM35.125 19.938c0.449 0 0.813-0.364 0.813-0.813s-0.364-0.813-0.813-0.813v0h-1.563c-0.449 0-0.813 0.364-0.813 0.813s0.364 0.813 0.813 0.813v0h1.563z"></path>
</symbol>
<symbol id="icon-diagram" viewBox="0 0 40 40">
    <path fill="#4d5ae5" style="fill: var(--color2, #4d5ae5)" d="M18.688 18.75h1.25v5.938h-1.25v-5.938zM24 21.375h1.313v3.313h-1.313v-3.313zM13.313 23.375h1.375v1.313h-1.375v-1.313zM9.375 22.688h1.25v2h-1.25v-2z"></path>
    <path fill="#2e2f42" style="fill: var(--color1, #2e2f42)" d="M2 35.375h32c1.063 0 2-0.938 2-2v-2.75c0-1.063-0.938-2-2-2h-0.625v-16.563l3.75-3.563c0.253 0.124 0.551 0.197 0.866 0.197 1.105 0 2-0.895 2-2s-0.895-2-2-2c-1.105 0-2 0.895-2 2 0 0.315 0.073 0.612 0.202 0.877l-0.005-0.012-2.875 2.688v-1.563c0-1.063-0.875-2-2-2h-26.625c-0 0-0.001 0-0.001 0-1.105 0-2 0.895-2 2 0 0.022 0 0.044 0.001 0.066l-0-0.003v20h-0.688c-0 0-0.001 0-0.001 0-1.083 0-1.964 0.86-1.999 1.934l-0 0.003v2.688c0 1.063 0.875 2 2 2zM38 6c0.38 0 0.688 0.308 0.688 0.688s-0.308 0.687-0.688 0.687v0c-0.362 0-0.656-0.294-0.656-0.656s0.294-0.656 0.656-0.656v0zM4 8.75c0-0.375 0.313-0.625 0.625-0.625h26.688c0.375 0 0.625 0.25 0.625 0.625v2.813l-1.25 1.25v-2.688c0-0.375-0.313-0.688-0.688-0.688h-24c-0.345 0-0.625 0.28-0.625 0.625v0 16.688c0 0.375 0.25 0.625 0.625 0.625h24c0.375 0 0.625-0.25 0.625-0.625v-12.125l1.375-1.25v15.313h-28v-19.938zM10 17.375c-0.005-0-0.010-0-0.015-0-1.105 0-2 0.895-2 2s0.895 2 2 2c0.541 0 1.031-0.214 1.391-0.563l-0.001 0.001 2.313 1.188c0.25 0.125 0.625 0 0.813-0.188l4.875-5.563 4.813 3.625c0.25 0.25 0.625 0.188 0.875 0l4.188-4v10.188h-22.563v-15.438h22.625v3.375l-4.688 4.438-4.875-3.688c-0.11-0.098-0.255-0.157-0.415-0.157-0.218 0-0.409 0.111-0.521 0.28l-0.001 0.002-5 5.625-1.875-0.938v-0.188c0-1.125-0.813-2-1.938-2zM10.625 19.375c0 0.345-0.28 0.625-0.625 0.625s-0.625-0.28-0.625-0.625v0c0-0.345 0.28-0.625 0.625-0.625s0.625 0.28 0.625 0.625v0zM14.688 30h6.563v0.688c0 0.375-0.313 0.625-0.625 0.625h-5.375c-0.345 0-0.625-0.28-0.625-0.625v0-0.625zM1.25 30.75c0-0.375 0.313-0.625 0.688-0.625h11.313v0.625c0 1.125 0.938 2 2 2h5.375c1.125 0 2-0.875 2-2v-0.625h11.375c0.375 0 0.625 0.25 0.625 0.625v2.688c0 0.375-0.25 0.625-0.625 0.625h-32c-0.345 0-0.625-0.28-0.625-0.625v0-2.813z"></path>
</symbol>
<symbol id="icon-client-five" viewBox="0 0 40 40">
    <path d="M10.305 26.297c0.094 0.105 0.145 0.237 0.142 0.372 0.005 0.088-0.012 0.176-0.051 0.258s-0.096 0.154-0.17 0.213c-0.183 0.125-0.411 0.186-0.64 0.172h-1.125v-2.359h1.102c0.218-0.013 0.433 0.042 0.611 0.157 0.071 0.054 0.128 0.121 0.165 0.198s0.054 0.16 0.049 0.243c0.006 0.13-0.039 0.258-0.128 0.361-0.086 0.094-0.204 0.159-0.335 0.184 0.149 0.024 0.284 0.096 0.38 0.202zM8.985 25.941h0.471c0.107 0.007 0.213-0.021 0.299-0.078 0.035-0.029 0.063-0.065 0.080-0.105s0.025-0.083 0.021-0.126c0.003-0.043-0.004-0.086-0.021-0.125s-0.044-0.076-0.079-0.105c-0.089-0.059-0.198-0.088-0.308-0.079h-0.463v0.619zM9.802 26.846c0.038-0.030 0.068-0.066 0.087-0.108s0.028-0.087 0.024-0.132c0.003-0.046-0.006-0.091-0.026-0.133s-0.050-0.079-0.088-0.109c-0.092-0.061-0.205-0.092-0.32-0.085h-0.494v0.649h0.5c0.113 0.006 0.224-0.023 0.316-0.082z"></path>
    <path d="M12.557 27.311l-0.613-0.922h-0.23v0.922h-0.527v-2.359h0.998c0.252-0.016 0.5 0.056 0.695 0.201 0.14 0.128 0.224 0.297 0.237 0.476s-0.044 0.356-0.163 0.5c-0.123 0.127-0.291 0.212-0.476 0.24l0.653 0.943h-0.573zM11.714 26.068h0.431c0.299 0 0.449-0.119 0.449-0.357 0.003-0.049-0.005-0.097-0.024-0.143s-0.048-0.087-0.086-0.122c-0.095-0.071-0.217-0.105-0.339-0.096h-0.436l0.005 0.718z"></path>
    <path d="M15.439 26.837h-1.051l-0.186 0.475h-0.553l0.965-2.332h0.598l0.961 2.332h-0.553l-0.182-0.475zM15.299 26.479l-0.384-0.996-0.384 0.996h0.768z"></path>
    <path d="M19.047 27.311h-0.523l-1.174-1.604v1.604h-0.522v-2.359h0.522l1.174 1.613v-1.613h0.523v2.359z"></path>
    <path d="M22.035 26.747c-0.108 0.178-0.273 0.323-0.474 0.416-0.228 0.104-0.481 0.155-0.736 0.149h-0.932v-2.359h0.932c0.255-0.006 0.507 0.044 0.736 0.145 0.2 0.091 0.365 0.234 0.474 0.411 0.108 0.192 0.164 0.404 0.164 0.619s-0.056 0.427-0.164 0.619zM21.436 26.69c0.149-0.157 0.232-0.356 0.232-0.563s-0.082-0.406-0.232-0.563c-0.181-0.142-0.416-0.214-0.655-0.201h-0.363v1.527h0.363c0.239 0.014 0.475-0.059 0.655-0.2z"></path>
    <path d="M15.767 11.833c0 0 6.756 2.296 6.613 5.619v5.621c0 0-6.751-2.298-6.611-5.621l-0.003-5.619z"></path>
    <path d="M28.4 21.757c1.276-0.791 2.752-1.28 4.293-1.424v-1.759c-1.775 0.616-3.281 1.733-4.293 3.184z"></path>
    <path d="M27.633 22.288c1.044-1.893 2.855-3.354 5.059-4.082v-5.070c0 0-9.622 3.271-9.419 8.003v8.002c0 0 0.429-0.146 1.103-0.421 0-0.256 0-0.514 0.031-0.773 0.199-2.197 1.359-4.233 3.225-5.66z"></path>
    <path d="M26.718 25.26c0.051-0.555 0.163-1.104 0.337-1.638-1.162 1.232-1.866 2.762-2.012 4.373-0.014 0.152-0.022 0.304-0.026 0.461 0.547-0.236 1.183-0.531 1.851-0.878-0.171-0.762-0.221-1.542-0.15-2.317z"></path>
    <path d="M27.1 25.289c-0.064 0.701-0.024 1.407 0.119 2.098 2.629-1.416 5.583-3.604 5.469-6.249v-0.23c-1.878 0.189-3.636 0.928-5.002 2.104-0.32 0.729-0.517 1.496-0.586 2.277z"></path>
</symbol>
<symbol id="icon-client-four" viewBox="0 0 40 40">
    <path d="M9.261 17.507h-0.001c-0.918 0-1.661 0.671-1.661 1.498v0.001c0 0.827 0.744 1.498 1.661 1.498h0.001c0.918 0 1.661-0.671 1.661-1.498v-0.001c0-0.827-0.744-1.498-1.661-1.498z"></path>
    <path d="M21.524 17.028c-0.003-1.149-0.51-2.25-1.411-3.063s-2.122-1.27-3.397-1.273v0c-1.275 0.002-2.497 0.46-3.398 1.272s-1.409 1.914-1.412 3.064v6.336c0 0 9.617-0.966 9.618-6.335v-0.001z"></path>
    <path d="M4.231 25.444c0.002 0.799 0.356 1.566 0.982 2.131s1.477 0.884 2.363 0.886c0.887-0.002 1.736-0.321 2.363-0.886s0.98-1.331 0.983-2.13v-4.409c0 0-6.692 0.672-6.692 4.408zM7.577 26.234c-0.173 0-0.343-0.046-0.487-0.133s-0.256-0.21-0.323-0.354c-0.066-0.144-0.084-0.303-0.050-0.456s0.117-0.294 0.24-0.404c0.123-0.11 0.279-0.186 0.449-0.216s0.346-0.015 0.506 0.045c0.16 0.060 0.297 0.161 0.393 0.291s0.148 0.283 0.148 0.439c0 0.104-0.022 0.207-0.066 0.303s-0.108 0.184-0.19 0.257c-0.081 0.074-0.178 0.132-0.285 0.172s-0.221 0.060-0.336 0.060v-0.003z"></path>
    <path d="M13.696 24.813v1.641h-0.338v-1.641h0.338zM14.349 25.514v0.264h-0.746v-0.264h0.746zM14.428 24.813v0.265h-0.825v-0.265h0.825zM15.972 25.595v0.078c0 0.125-0.017 0.237-0.051 0.336s-0.081 0.184-0.143 0.254c-0.062 0.069-0.135 0.122-0.221 0.159s-0.179 0.055-0.283 0.055c-0.103 0-0.197-0.018-0.283-0.055s-0.159-0.090-0.221-0.159c-0.062-0.070-0.111-0.154-0.145-0.254s-0.051-0.211-0.051-0.336v-0.078c0-0.125 0.017-0.237 0.051-0.336s0.081-0.184 0.143-0.254c0.062-0.070 0.136-0.123 0.221-0.16s0.18-0.055 0.283-0.055c0.104 0 0.198 0.018 0.283 0.055s0.159 0.090 0.221 0.16c0.062 0.070 0.11 0.154 0.144 0.254s0.052 0.21 0.052 0.336zM15.63 25.673v-0.080c0-0.087-0.008-0.164-0.024-0.23s-0.039-0.122-0.070-0.167c-0.031-0.045-0.068-0.079-0.113-0.101s-0.095-0.035-0.152-0.035-0.108 0.012-0.152 0.035c-0.044 0.023-0.081 0.056-0.112 0.101s-0.053 0.101-0.069 0.167-0.024 0.143-0.024 0.23v0.080c0 0.086 0.008 0.163 0.024 0.23s0.039 0.122 0.070 0.168c0.031 0.045 0.068 0.079 0.113 0.103s0.095 0.035 0.152 0.035c0.057 0 0.108-0.012 0.152-0.035s0.081-0.057 0.112-0.103c0.030-0.046 0.053-0.102 0.069-0.168s0.024-0.143 0.024-0.23zM17.069 26.025c0-0.029-0.004-0.056-0.014-0.079s-0.024-0.046-0.047-0.065c-0.023-0.020-0.056-0.040-0.098-0.060s-0.097-0.040-0.163-0.061c-0.074-0.024-0.145-0.051-0.212-0.081s-0.125-0.065-0.176-0.105c-0.050-0.041-0.090-0.088-0.119-0.141s-0.043-0.115-0.043-0.186c0-0.068 0.015-0.13 0.045-0.186s0.072-0.104 0.126-0.144c0.054-0.041 0.118-0.072 0.192-0.094s0.156-0.033 0.244-0.033c0.121 0 0.226 0.022 0.317 0.065s0.16 0.103 0.21 0.179c0.050 0.076 0.075 0.163 0.075 0.26h-0.336c0-0.048-0.010-0.090-0.030-0.126s-0.050-0.066-0.090-0.087c-0.040-0.021-0.090-0.032-0.151-0.032-0.059 0-0.107 0.009-0.146 0.027s-0.068 0.041-0.088 0.071c-0.020 0.029-0.029 0.062-0.029 0.099 0 0.028 0.007 0.053 0.020 0.076s0.035 0.044 0.063 0.063 0.062 0.038 0.103 0.055c0.041 0.017 0.087 0.034 0.141 0.051 0.089 0.027 0.168 0.057 0.236 0.091s0.125 0.072 0.171 0.114 0.080 0.090 0.104 0.143c0.023 0.053 0.035 0.114 0.035 0.181 0 0.071-0.014 0.135-0.042 0.192s-0.068 0.104-0.121 0.143c-0.053 0.039-0.115 0.069-0.188 0.089s-0.154 0.030-0.244 0.030c-0.081 0-0.161-0.011-0.24-0.032s-0.151-0.054-0.215-0.098c-0.064-0.044-0.115-0.099-0.153-0.167s-0.057-0.148-0.057-0.24h0.339c0 0.051 0.008 0.094 0.024 0.13s0.038 0.064 0.066 0.086c0.029 0.022 0.064 0.038 0.104 0.047s0.085 0.015 0.133 0.015c0.059 0 0.107-0.008 0.144-0.025s0.066-0.039 0.084-0.069c0.019-0.029 0.028-0.062 0.028-0.099zM18.371 24.813v1.641h-0.337v-1.641h0.337zM18.876 24.813v0.265h-1.339v-0.265h1.339zM20.169 26.19v0.264h-0.873v-0.264h0.873zM19.406 24.813v1.641h-0.338v-1.641h0.338zM20.055 25.482v0.257h-0.759v-0.257h0.759zM20.168 24.813v0.265h-0.872v-0.265h0.872zM20.366 24.813h0.612c0.125 0 0.233 0.019 0.323 0.056s0.161 0.093 0.21 0.167 0.073 0.164 0.073 0.272c0 0.088-0.015 0.163-0.045 0.226s-0.071 0.115-0.125 0.157c-0.053 0.041-0.116 0.074-0.188 0.099l-0.107 0.056h-0.532l-0.002-0.264h0.396c0.059 0 0.109-0.011 0.148-0.032s0.068-0.050 0.088-0.088c0.020-0.038 0.030-0.081 0.030-0.131 0-0.053-0.010-0.098-0.029-0.136s-0.049-0.068-0.089-0.088c-0.040-0.020-0.090-0.030-0.15-0.030h-0.274v1.376h-0.338v-1.641zM21.284 26.454l-0.374-0.731 0.357-0.002 0.379 0.718v0.016h-0.362zM23.058 25.869h-0.418v-0.264h0.418c0.065 0 0.117-0.011 0.158-0.032s0.070-0.052 0.089-0.090 0.028-0.081 0.028-0.13c0-0.049-0.009-0.094-0.028-0.136s-0.048-0.076-0.089-0.101c-0.041-0.026-0.093-0.038-0.158-0.038h-0.301v1.376h-0.338v-1.641h0.639c0.128 0 0.239 0.023 0.33 0.070s0.163 0.109 0.212 0.19 0.073 0.174 0.073 0.278c0 0.106-0.024 0.198-0.073 0.275s-0.119 0.137-0.212 0.179c-0.092 0.042-0.202 0.063-0.33 0.063zM25.008 26.19v0.264h-0.873v-0.264h0.873zM24.245 24.813v1.641h-0.338v-1.641h0.338zM24.894 25.482v0.257h-0.759v-0.257h0.759zM25.007 24.813v0.265h-0.872v-0.265h0.872zM25.961 24.813v1.641h-0.337v-1.641h0.337zM26.466 24.813v0.265h-1.339v-0.265h1.339zM27.759 26.19v0.264h-0.873v-0.264h0.873zM26.996 24.813v1.641h-0.338v-1.641h0.338zM27.646 25.482v0.257h-0.759v-0.257h0.759zM27.758 24.813v0.265h-0.872v-0.265h0.872zM27.957 24.813h0.612c0.125 0 0.233 0.019 0.323 0.056s0.161 0.093 0.21 0.167 0.073 0.164 0.073 0.272c0 0.088-0.015 0.163-0.045 0.226s-0.071 0.115-0.125 0.157c-0.053 0.041-0.116 0.074-0.188 0.099l-0.107 0.056h-0.532l-0.002-0.264h0.396c0.059 0 0.109-0.011 0.148-0.032s0.068-0.050 0.088-0.088c0.020-0.038 0.030-0.081 0.030-0.131 0-0.053-0.010-0.098-0.029-0.136s-0.049-0.068-0.089-0.088c-0.040-0.020-0.090-0.030-0.15-0.030h-0.274v1.376h-0.338v-1.641zM28.874 26.454l-0.374-0.731 0.357-0.002 0.379 0.718v0.016h-0.362zM30.289 26.025c0-0.029-0.005-0.056-0.014-0.079s-0.024-0.046-0.047-0.065c-0.023-0.020-0.056-0.040-0.098-0.060s-0.097-0.040-0.163-0.061c-0.074-0.024-0.145-0.051-0.212-0.081s-0.125-0.065-0.176-0.105c-0.050-0.041-0.090-0.088-0.119-0.141s-0.043-0.115-0.043-0.186c0-0.068 0.015-0.13 0.045-0.186s0.072-0.104 0.126-0.144c0.054-0.041 0.118-0.072 0.192-0.094s0.156-0.033 0.245-0.033c0.121 0 0.226 0.022 0.317 0.065s0.16 0.103 0.21 0.179c0.050 0.076 0.075 0.163 0.075 0.26h-0.336c0-0.048-0.010-0.090-0.030-0.126s-0.050-0.066-0.090-0.087c-0.040-0.021-0.090-0.032-0.151-0.032-0.059 0-0.107 0.009-0.146 0.027s-0.068 0.041-0.088 0.071c-0.020 0.029-0.029 0.062-0.029 0.099 0 0.028 0.007 0.053 0.020 0.076s0.035 0.044 0.063 0.063 0.062 0.038 0.103 0.055c0.041 0.017 0.088 0.034 0.141 0.051 0.089 0.027 0.168 0.057 0.236 0.091s0.125 0.072 0.171 0.114 0.080 0.090 0.104 0.143c0.023 0.053 0.035 0.114 0.035 0.181 0 0.071-0.014 0.135-0.042 0.192s-0.068 0.104-0.121 0.143c-0.053 0.039-0.115 0.069-0.188 0.089s-0.154 0.030-0.244 0.030c-0.081 0-0.161-0.011-0.24-0.032s-0.151-0.054-0.215-0.098c-0.064-0.044-0.115-0.099-0.153-0.167s-0.057-0.148-0.057-0.24h0.339c0 0.051 0.008 0.094 0.024 0.13s0.038 0.064 0.066 0.086c0.029 0.022 0.064 0.038 0.104 0.047s0.085 0.015 0.133 0.015c0.059 0 0.107-0.008 0.144-0.025s0.066-0.039 0.084-0.069c0.019-0.029 0.028-0.062 0.028-0.099z"></path>
</symbol>
<symbol id="icon-client-one" viewBox="0 0 40 40">
    <path d="M14.615 11.923l2.695 2.568-5.003-0.003v12.459h13.077v-4.764l2.692 2.565v-12.825h-13.462zM25.266 21.882l-7.642-7.281h7.642v7.281zM22.894 25.124h-8.517v-8.379h0.602v7.812h7.915v0.567zM16.075 29.254l-0.317-0.653h-0.262l0.46 0.864v0.503h0.238v-0.503l0.46-0.864h-0.261l-0.317 0.653zM17.245 28.602h0.056l0.516 1.367h-0.248l-0.111-0.32h-0.529l-0.11 0.32h-0.247l0.515-1.367h0.158zM16.995 29.462h0.4l-0.2-0.58-0.2 0.58zM18.647 29.235c-0.010-0.013-0.020-0.026-0.030-0.038-0.035-0.046-0.062-0.091-0.082-0.134s-0.029-0.089-0.029-0.135c0-0.071 0.015-0.133 0.044-0.184s0.071-0.091 0.125-0.118c0.054-0.028 0.117-0.042 0.189-0.042 0.069 0 0.129 0.014 0.179 0.042s0.089 0.064 0.116 0.11c0.028 0.046 0.041 0.096 0.041 0.15 0 0.043-0.008 0.083-0.023 0.118s-0.037 0.068-0.065 0.098c-0.028 0.029-0.059 0.057-0.096 0.084l-0.095 0.069 0.271 0.319c0.009-0.018 0.017-0.036 0.024-0.055 0.023-0.060 0.035-0.127 0.035-0.2h0.195c0 0.066-0.007 0.129-0.020 0.189s-0.033 0.115-0.061 0.165c-0.011 0.021-0.024 0.041-0.039 0.060l0.2 0.236h-0.262l-0.079-0.093c-0.043 0.033-0.090 0.058-0.14 0.077-0.066 0.024-0.137 0.036-0.212 0.036-0.091 0-0.169-0.017-0.236-0.050s-0.118-0.079-0.154-0.137c-0.036-0.058-0.054-0.125-0.054-0.2 0-0.056 0.012-0.105 0.035-0.146s0.055-0.082 0.095-0.118c0.037-0.034 0.079-0.067 0.126-0.101zM18.759 29.373l-0.028 0.021c-0.033 0.027-0.058 0.053-0.074 0.078s-0.026 0.047-0.031 0.068-0.008 0.039-0.008 0.054c0 0.040 0.008 0.076 0.025 0.109s0.043 0.059 0.076 0.078c0.034 0.019 0.075 0.028 0.123 0.028 0.052 0 0.102-0.012 0.151-0.035 0.024-0.012 0.048-0.026 0.070-0.043l-0.304-0.358zM18.813 29.123l0.084-0.056c0.039-0.026 0.068-0.052 0.085-0.077s0.025-0.058 0.025-0.096c0-0.033-0.013-0.063-0.038-0.090s-0.060-0.041-0.106-0.041c-0.032 0-0.059 0.008-0.081 0.023s-0.039 0.034-0.050 0.058c-0.011 0.024-0.016 0.050-0.016 0.080 0 0.028 0.007 0.057 0.022 0.087s0.034 0.060 0.059 0.093c0.005 0.007 0.010 0.013 0.016 0.020zM21.205 29.524h-0.235c-0.007 0.059-0.021 0.11-0.043 0.151s-0.053 0.072-0.095 0.093c-0.041 0.021-0.095 0.032-0.162 0.032-0.055 0-0.102-0.011-0.142-0.033s-0.072-0.053-0.098-0.093c-0.025-0.040-0.044-0.088-0.056-0.144s-0.018-0.119-0.018-0.188v-0.116c0-0.073 0.007-0.137 0.020-0.193s0.034-0.105 0.061-0.144 0.060-0.068 0.101-0.088c0.040-0.020 0.087-0.030 0.141-0.030 0.066 0 0.119 0.011 0.16 0.034s0.071 0.054 0.092 0.096c0.021 0.042 0.035 0.092 0.041 0.151h0.235c-0.009-0.091-0.035-0.172-0.077-0.243s-0.099-0.126-0.175-0.166-0.167-0.060-0.276-0.060c-0.086 0-0.163 0.015-0.232 0.045s-0.127 0.074-0.176 0.131c-0.049 0.056-0.086 0.124-0.113 0.204s-0.039 0.168-0.039 0.267v0.114c0 0.098 0.013 0.187 0.038 0.267s0.063 0.147 0.111 0.204c0.048 0.056 0.106 0.099 0.174 0.13s0.144 0.045 0.228 0.045c0.11 0 0.204-0.020 0.281-0.060s0.137-0.095 0.179-0.164c0.043-0.070 0.068-0.15 0.075-0.239zM22.509 29.323v-0.075c0-0.103-0.014-0.196-0.041-0.277s-0.065-0.152-0.116-0.209c-0.050-0.058-0.11-0.102-0.179-0.132s-0.146-0.046-0.231-0.046c-0.084 0-0.161 0.015-0.23 0.046s-0.129 0.074-0.179 0.132c-0.050 0.058-0.089 0.127-0.116 0.209s-0.041 0.174-0.041 0.277v0.075c0 0.103 0.014 0.196 0.041 0.278s0.068 0.152 0.118 0.209 0.111 0.102 0.179 0.132c0.069 0.030 0.146 0.045 0.23 0.045s0.161-0.015 0.231-0.045c0.069-0.031 0.129-0.075 0.178-0.132s0.089-0.127 0.116-0.209 0.040-0.175 0.040-0.278zM22.274 29.246v0.077c0 0.076-0.008 0.144-0.023 0.203s-0.036 0.109-0.064 0.149c-0.028 0.040-0.063 0.070-0.103 0.091s-0.087 0.030-0.14 0.030c-0.052 0-0.098-0.010-0.139-0.030s-0.076-0.051-0.105-0.091c-0.029-0.041-0.051-0.090-0.066-0.149s-0.023-0.126-0.023-0.203v-0.077c0-0.076 0.008-0.144 0.023-0.202s0.037-0.108 0.065-0.147c0.029-0.040 0.064-0.070 0.104-0.090s0.087-0.031 0.139-0.031 0.099 0.010 0.14 0.031c0.041 0.020 0.076 0.050 0.104 0.090s0.050 0.089 0.065 0.147c0.015 0.058 0.023 0.126 0.023 0.202z"></path>
</symbol>
<symbol id="icon-client-six" viewBox="0 0 40 40">
    <path d="M20.588 19.786c-0.171-0.227-0.252-0.496-0.233-0.766v-1.111c0-0.341 0.077-0.599 0.232-0.776s0.42-0.265 0.796-0.264c0.354 0 0.605 0.075 0.753 0.226 0.162 0.192 0.241 0.427 0.223 0.664v0.261h-0.633v-0.264c0.002-0.087-0.004-0.173-0.018-0.259-0.009-0.059-0.041-0.113-0.090-0.154-0.065-0.044-0.147-0.066-0.229-0.060-0.087-0.006-0.173 0.017-0.241 0.063-0.055 0.045-0.092 0.105-0.105 0.169-0.018 0.091-0.026 0.183-0.025 0.275v1.348c-0.010 0.13 0.018 0.26 0.081 0.379 0.031 0.040 0.075 0.072 0.126 0.092s0.108 0.027 0.163 0.021c0.081 0.006 0.161-0.016 0.224-0.061 0.052-0.044 0.085-0.102 0.094-0.164 0.015-0.089 0.021-0.18 0.020-0.27v-0.273h0.633v0.25c0.018 0.247-0.059 0.493-0.219 0.698-0.145 0.165-0.393 0.247-0.757 0.247s-0.639-0.088-0.795-0.271z"></path>
    <path d="M23.222 19.797c-0.16-0.173-0.24-0.425-0.24-0.758v-1.168c0-0.33 0.080-0.58 0.24-0.749s0.427-0.254 0.801-0.253c0.372 0 0.638 0.084 0.797 0.253s0.241 0.419 0.241 0.749v1.168c0 0.33-0.081 0.583-0.244 0.757s-0.427 0.261-0.795 0.261c-0.368 0-0.64-0.088-0.801-0.26zM24.318 19.517c0.057-0.108 0.083-0.227 0.076-0.346v-1.431c0.007-0.117-0.018-0.233-0.075-0.339-0.032-0.041-0.077-0.073-0.129-0.093s-0.11-0.027-0.167-0.020c-0.057-0.007-0.115 0-0.167 0.020s-0.098 0.052-0.13 0.093c-0.058 0.106-0.084 0.222-0.076 0.339v1.437c-0.008 0.119 0.018 0.238 0.076 0.346 0.037 0.036 0.082 0.066 0.133 0.086s0.106 0.030 0.163 0.030c0.056 0 0.111-0.010 0.163-0.030s0.097-0.049 0.133-0.086v-0.007z"></path>
    <path d="M25.822 16.902h0.681l0.512 2.156 0.524-2.156h0.663l0.067 3.112h-0.49l-0.052-2.163-0.506 2.163h-0.393l-0.524-2.171-0.048 2.171h-0.495l0.062-3.112z"></path>
    <path d="M29.032 16.902h1.061c0.611 0 0.917 0.295 0.917 0.884 0 0.564-0.322 0.846-0.965 0.845h-0.361v1.383h-0.655l0.004-3.112zM29.938 18.232c0.065 0.007 0.13 0.002 0.193-0.015s0.119-0.045 0.168-0.083c0.075-0.105 0.108-0.229 0.094-0.351 0.003-0.095-0.007-0.19-0.031-0.282-0.009-0.031-0.026-0.060-0.048-0.085s-0.051-0.047-0.083-0.063c-0.091-0.038-0.191-0.055-0.292-0.050h-0.254v0.93h0.254z"></path>
    <path d="M31.953 16.902h0.703l0.722 3.112h-0.61l-0.143-0.717h-0.627l-0.147 0.717h-0.619l0.721-3.112zM32.554 18.936l-0.245-1.306-0.245 1.306h0.49z"></path>
    <path d="M33.961 16.902h0.458l0.877 1.775v-1.775h0.543v3.112h-0.436l-0.883-1.853v1.853h-0.562l0.001-3.112z"></path>
    <path d="M37.113 18.828l-0.729-1.921h0.614l0.445 1.234 0.418-1.234h0.601l-0.72 1.921v1.186h-0.629v-1.186z"></path>
    <path d="M21.599 21.374v0.163h-0.534v1.264h-0.224v-1.264h-0.537v-0.163h1.295z"></path>
    <path d="M23.274 22.802h-0.173c-0.018 0.001-0.035-0.004-0.048-0.014-0.013-0.008-0.023-0.020-0.029-0.033l-0.154-0.339h-0.741l-0.155 0.339c-0.004 0.014-0.012 0.027-0.024 0.038-0.014 0.009-0.031 0.014-0.048 0.014h-0.173l0.655-1.427h0.228l0.663 1.421zM22.19 22.272h0.618l-0.262-0.581c-0.019-0.044-0.036-0.089-0.048-0.134-0.009 0.027-0.017 0.053-0.025 0.076l-0.024 0.060-0.259 0.58z"></path>
    <path d="M24.403 22.662c0.041 0.002 0.082 0.002 0.123 0 0.035-0.003 0.070-0.009 0.105-0.017 0.032-0.007 0.064-0.015 0.094-0.026 0.029-0.010 0.058-0.023 0.088-0.035v-0.321h-0.262c-0.006 0-0.013-0.001-0.019-0.002s-0.012-0.005-0.016-0.009c-0.004-0.003-0.008-0.007-0.010-0.012s-0.003-0.009-0.003-0.014v-0.11h0.508v0.547c-0.041 0.026-0.085 0.048-0.131 0.068s-0.095 0.036-0.145 0.049c-0.054 0.014-0.108 0.023-0.164 0.029-0.064 0.006-0.127 0.009-0.191 0.009-0.113 0.001-0.225-0.017-0.33-0.053-0.098-0.034-0.187-0.085-0.262-0.149-0.073-0.065-0.13-0.142-0.169-0.226-0.041-0.095-0.062-0.195-0.060-0.296-0.001-0.102 0.019-0.203 0.059-0.298 0.038-0.085 0.095-0.162 0.169-0.226s0.164-0.115 0.262-0.148c0.112-0.036 0.231-0.054 0.351-0.053 0.061-0 0.122 0.004 0.182 0.012 0.053 0.007 0.105 0.020 0.156 0.036 0.046 0.015 0.090 0.034 0.131 0.056 0.040 0.022 0.078 0.047 0.114 0.075l-0.063 0.088c-0.005 0.008-0.012 0.015-0.021 0.020s-0.019 0.007-0.030 0.008c-0.014-0-0.029-0.004-0.041-0.011-0.020-0.009-0.041-0.020-0.064-0.034-0.028-0.015-0.057-0.028-0.088-0.038-0.039-0.014-0.079-0.024-0.121-0.032-0.055-0.009-0.111-0.013-0.166-0.012-0.086-0.001-0.172 0.013-0.253 0.040-0.073 0.025-0.139 0.064-0.192 0.113-0.054 0.051-0.096 0.112-0.122 0.177-0.059 0.155-0.059 0.321 0 0.476 0.029 0.067 0.073 0.128 0.131 0.18 0.054 0.049 0.119 0.087 0.191 0.113 0.083 0.025 0.171 0.034 0.259 0.028z"></path>
    <path d="M26.49 22.639h0.715v0.163h-0.934v-1.427h0.224l-0.005 1.264z"></path>
    <path d="M27.949 22.802h-0.224v-1.427h0.224v1.427z"></path>
    <path d="M28.782 21.381c0.013 0.007 0.025 0.015 0.034 0.026l0.957 1.076c-0.001-0.017-0.001-0.034 0-0.051 0-0.016 0-0.032 0-0.046v-1.017h0.195v1.433h-0.113c-0.017 0.001-0.033-0.002-0.048-0.008-0.014-0.007-0.026-0.016-0.035-0.027l-0.956-1.075c0 0.017 0 0.033 0 0.049s0 0.031 0 0.044v1.017h-0.187v-1.427h0.117c0.013 0 0.025 0.002 0.037 0.007z"></path>
    <path d="M31.617 21.374v0.157h-0.794v0.471h0.643v0.151h-0.643v0.487h0.794v0.157h-1.024v-1.424h1.024z"></path>
    <path d="M8.152 12.561l9.943 2.436v8.537l-9.943-2.435v-8.538zM7.514 11.833v9.68l11.217 2.749v-9.679l-11.217-2.75z"></path>
    <path d="M13.526 28.756l-11.218-2.751v-9.679l11.218 2.75v9.68z"></path>
    <path d="M7.7 12.451l9.813 2.406-4.173 3.602-9.815-2.407 4.175-3.601zM7.514 11.833l-5.207 4.493 11.218 2.75 5.205-4.493-11.217-2.75z"></path>
    <path d="M14.157 28.212l4.574-3.948-4.574-1.122v5.070z"></path>
</symbol>
<symbol id="icon-client-three" viewBox="0 0 40 40">
    <path d="M14.158 28.163c0.006 0 0.012 0.001 0.018 0.004s0.011 0.005 0.015 0.009l0.085 0.080c-0.066 0.065-0.147 0.116-0.239 0.151-0.107 0.038-0.223 0.057-0.339 0.054-0.109 0.002-0.218-0.015-0.319-0.051-0.091-0.033-0.173-0.081-0.24-0.143-0.068-0.064-0.121-0.139-0.155-0.221-0.037-0.091-0.055-0.187-0.054-0.284-0.002-0.097 0.018-0.194 0.058-0.285 0.037-0.082 0.093-0.158 0.165-0.221 0.072-0.063 0.159-0.112 0.255-0.144 0.105-0.035 0.216-0.052 0.328-0.051 0.104-0.002 0.208 0.014 0.305 0.046 0.084 0.031 0.161 0.074 0.228 0.128l-0.071 0.085c-0.005 0.006-0.011 0.011-0.018 0.015-0.008 0.005-0.019 0.007-0.029 0.006s-0.022-0.004-0.031-0.009l-0.038-0.023-0.053-0.029c-0.023-0.011-0.047-0.020-0.071-0.028-0.031-0.010-0.064-0.017-0.097-0.023-0.042-0.007-0.084-0.010-0.126-0.009-0.081-0.001-0.161 0.012-0.236 0.038-0.070 0.024-0.133 0.061-0.185 0.107-0.053 0.049-0.094 0.107-0.12 0.171-0.030 0.072-0.045 0.148-0.044 0.225-0.001 0.078 0.013 0.155 0.044 0.229 0.026 0.063 0.066 0.12 0.118 0.17 0.049 0.046 0.109 0.082 0.176 0.105 0.069 0.025 0.144 0.037 0.219 0.036 0.043 0.001 0.087-0.002 0.13-0.007 0.070-0.007 0.137-0.028 0.196-0.061 0.030-0.017 0.058-0.036 0.084-0.056 0.011-0.009 0.025-0.014 0.040-0.014z"></path>
    <path d="M16.61 27.762c0.001 0.096-0.018 0.192-0.057 0.282-0.035 0.082-0.089 0.156-0.16 0.219s-0.156 0.112-0.251 0.144c-0.208 0.068-0.438 0.068-0.645 0-0.094-0.033-0.179-0.082-0.249-0.144-0.071-0.064-0.126-0.139-0.161-0.221-0.076-0.183-0.076-0.382 0-0.565 0.036-0.082 0.091-0.158 0.161-0.222 0.071-0.060 0.156-0.108 0.249-0.139 0.208-0.069 0.438-0.069 0.645 0 0.094 0.033 0.18 0.082 0.251 0.144 0.070 0.063 0.124 0.137 0.16 0.219 0.039 0.091 0.059 0.187 0.057 0.284zM16.387 27.762c0.002-0.077-0.012-0.154-0.040-0.227-0.024-0.063-0.062-0.12-0.114-0.17-0.050-0.047-0.111-0.083-0.179-0.107-0.151-0.050-0.318-0.050-0.469 0-0.068 0.024-0.13 0.060-0.179 0.107-0.052 0.049-0.091 0.107-0.115 0.17-0.054 0.148-0.054 0.306 0 0.454 0.024 0.063 0.063 0.121 0.115 0.17 0.050 0.046 0.111 0.083 0.179 0.106 0.151 0.048 0.318 0.048 0.469 0 0.068-0.024 0.13-0.060 0.179-0.106 0.051-0.049 0.090-0.107 0.114-0.17 0.029-0.073 0.042-0.15 0.040-0.227z"></path>
    <path d="M18.283 27.999l0.022 0.051c0.009-0.018 0.016-0.034 0.024-0.051s0.017-0.034 0.028-0.050l0.543-0.843c0.011-0.014 0.020-0.024 0.031-0.026 0.014-0.004 0.029-0.005 0.045-0.005h0.16v1.371h-0.19v-1.008c0-0.013 0-0.027 0-0.043-0.001-0.016-0.001-0.031 0-0.047l-0.546 0.854c-0.007 0.013-0.018 0.024-0.032 0.031s-0.030 0.012-0.047 0.011h-0.031c-0.017 0-0.033-0.004-0.047-0.011s-0.025-0.018-0.032-0.031l-0.562-0.86c0 0.016 0 0.033 0 0.049s0 0.031 0 0.044v1.008h-0.184v-1.368h0.16c0.015-0.001 0.030 0.001 0.045 0.005 0.013 0.006 0.024 0.015 0.030 0.026l0.554 0.844c0.011 0.016 0.020 0.032 0.028 0.049z"></path>
    <path d="M20.325 27.931v0.513h-0.212v-1.369h0.474c0.089-0.001 0.179 0.009 0.264 0.030 0.069 0.017 0.132 0.046 0.187 0.085 0.047 0.037 0.084 0.083 0.106 0.134 0.025 0.056 0.037 0.115 0.036 0.175 0.001 0.060-0.012 0.12-0.039 0.175-0.026 0.053-0.065 0.099-0.115 0.137-0.054 0.041-0.119 0.072-0.188 0.091-0.083 0.023-0.169 0.033-0.256 0.032l-0.257-0.004zM20.325 27.784h0.257c0.056 0.001 0.111-0.006 0.165-0.021 0.044-0.013 0.084-0.033 0.119-0.059 0.032-0.025 0.057-0.056 0.072-0.091 0.017-0.037 0.026-0.076 0.025-0.115 0.002-0.038-0.005-0.076-0.021-0.111s-0.042-0.067-0.074-0.094c-0.081-0.054-0.183-0.080-0.286-0.073h-0.257v0.564z"></path>
    <path d="M23.179 28.447h-0.168c-0.017 0.001-0.033-0.004-0.047-0.013-0.012-0.009-0.021-0.019-0.028-0.032l-0.144-0.331h-0.725l-0.15 0.331c-0.006 0.012-0.015 0.023-0.027 0.031-0.014 0.009-0.030 0.014-0.048 0.014h-0.168l0.637-1.371h0.221l0.646 1.371zM22.128 27.938h0.599l-0.253-0.558c-0.019-0.042-0.035-0.085-0.048-0.129l-0.024 0.072c-0.007 0.022-0.016 0.042-0.023 0.058l-0.251 0.557z"></path>
    <path d="M24.096 27.082c0.013 0.006 0.024 0.014 0.032 0.024l0.929 1.033c0-0.016 0-0.033 0-0.048s0-0.031 0-0.045v-0.971h0.19v1.371h-0.106c-0.015 0-0.030-0.002-0.044-0.008s-0.025-0.015-0.034-0.025l-0.928-1.032c0.001 0.016 0.001 0.031 0 0.047 0 0.015 0 0.029 0 0.042v0.977h-0.19v-1.371h0.113c0.013-0 0.026 0.002 0.038 0.006z"></path>
    <path d="M26.812 27.901v0.544h-0.212v-0.544l-0.587-0.826h0.19c0.016-0.001 0.033 0.003 0.046 0.012 0.012 0.009 0.021 0.019 0.029 0.031l0.367 0.532c0.015 0.023 0.028 0.044 0.038 0.064s0.019 0.039 0.027 0.058l0.028-0.059c0.010-0.022 0.022-0.043 0.036-0.063l0.362-0.536c0.008-0.011 0.017-0.020 0.028-0.029 0.013-0.009 0.029-0.014 0.046-0.014h0.192l-0.588 0.829z"></path>
    <path d="M18.178 24.776c0.092 0.010 0.186 0.018 0.28 0.025 1.433-0.547 2.644-1.444 3.484-2.576s1.27-2.452 1.237-3.792l-1.579-1.349c0.321 1.427 0.171 2.903-0.434 4.261s-1.639 2.546-2.989 3.431z"></path>
    <path d="M17.614 24.713l0.042 0.007c1.442-0.881 2.542-2.112 3.157-3.533s0.716-2.967 0.292-4.438l-2.249-1.921c0.909 1.579 1.276 3.346 1.056 5.096s-1.017 3.411-2.298 4.789z"></path>
    <path d="M25.24 20.016c-0.382 1.473-1.31 2.801-2.646 3.788-0.39 0.29-0.811 0.548-1.257 0.771 1.088-0.273 2.088-0.756 2.922-1.412s1.482-1.466 1.892-2.369l-0.912-0.778z"></path>
    <path d="M24.883 19.799l-1.298-1.109c-0.025 1.265-0.446 2.501-1.219 3.58s-1.87 1.961-3.178 2.555h0.006c0.291-0 0.582-0.015 0.872-0.044 1.222-0.426 2.301-1.104 3.141-1.973s1.416-1.902 1.675-3.008z"></path>
    <path d="M17.802 14.018l-1.549-1.325c-1.385 0.457-2.576 1.261-3.417 2.306s-1.294 2.283-1.298 3.551v0c0.005 1.402 0.557 2.762 1.569 3.865s2.425 1.887 4.016 2.226c1.421-1.479 2.252-3.306 2.374-5.217s-0.472-3.804-1.696-5.406z"></path>
    <path d="M28.462 19.595c-0.006-1.663-0.781-3.256-2.157-4.432s-3.241-1.838-5.187-1.843c-0.899-0.001-1.791 0.141-2.63 0.418l9.484 8.103c0.325-0.716 0.491-1.478 0.491-2.246z"></path>
</symbol>
<symbol id="icon-client-two" viewBox="0 0 40 40">
    <path d="M19.274 11.513h-0.053c-0.081-0.005-0.161-0.007-0.242-0.009v0h-0.175c-0.153 0-0.308 0.004-0.463 0.012-0.012-0.001-0.023-0.001-0.035 0-1.402 0.079-2.775 0.43-4.045 1.032l-0.166 0.080v8.516l0.389-0.132c0.341-0.117 0.705-0.223 1.082-0.321 1.018-0.261 2.063-0.4 3.114-0.414v1.119c-0.139 0.001-0.274 0.005-0.41 0.012h-0.032c-0.808 0.044-1.611 0.168-2.395 0.368-0.994 0.249-1.953 0.622-2.854 1.112v-10.922c0.936-0.546 1.944-0.956 2.994-1.218 0.922-0.238 1.87-0.36 2.822-0.364h0.164c0.197 0.005 0.388 0.014 0.568 0.027 0.474 0.033 0.945 0.108 1.406 0.224v1.101c-0.448-0.104-0.903-0.173-1.362-0.205-0.009-0.001-0.019-0.002-0.028-0.002-0.095-0.008-0.19-0.016-0.279-0.016zM21.213 12.639c0.244 0.019 0.497 0.027 0.753 0.027 1.001-0.004 1.997-0.131 2.967-0.38 0.993-0.25 1.952-0.624 2.853-1.113v10.727c-0.936 0.546-1.945 0.955-2.995 1.218-0.922 0.237-1.87 0.359-2.822 0.363-0.721 0.006-1.44-0.079-2.141-0.252v-10.797c0.165 0.038 0.336 0.073 0.509 0.103 0.284 0.048 0.584 0.083 0.876 0.105zM26.672 12.722l-0.389 0.131c-0.358 0.12-0.719 0.228-1.082 0.324-1.057 0.272-2.143 0.411-3.233 0.415-0.254 0-0.487-0.007-0.713-0.022l-0.31-0.021v8.76l0.267 0.023c0.247 0.022 0.502 0.032 0.759 0.032 0.859-0.004 1.714-0.114 2.546-0.33 0.685-0.172 1.352-0.411 1.99-0.715l0.166-0.080v-8.519z"></path>
    <path d="M13.745 26.62c-0.056-0.058-0.123-0.104-0.198-0.134s-0.155-0.044-0.235-0.041c-0.086-0.001-0.171 0.015-0.25 0.047-0.073 0.029-0.139 0.073-0.195 0.128s-0.098 0.122-0.126 0.196c-0.031 0.077-0.046 0.159-0.045 0.242v1.459c-0.003 0.103 0.016 0.205 0.057 0.299 0.034 0.075 0.084 0.141 0.146 0.196 0.058 0.049 0.127 0.084 0.2 0.104 0.071 0.020 0.144 0.030 0.218 0.030 0.081 0.001 0.162-0.017 0.235-0.051 0.073-0.032 0.139-0.078 0.195-0.135 0.054-0.057 0.097-0.123 0.127-0.196 0.031-0.074 0.047-0.153 0.047-0.233v-0.163h-0.381v0.13c0.001 0.044-0.006 0.089-0.022 0.13-0.012 0.031-0.031 0.059-0.055 0.082-0.024 0.019-0.051 0.033-0.080 0.042-0.026 0.009-0.053 0.013-0.080 0.014-0.034 0.004-0.069-0.001-0.1-0.015s-0.059-0.036-0.079-0.063c-0.036-0.059-0.054-0.127-0.051-0.196v-1.36c-0.002-0.075 0.014-0.15 0.047-0.218 0.020-0.031 0.048-0.055 0.081-0.071s0.070-0.021 0.106-0.017c0.033-0.001 0.066 0.006 0.095 0.020s0.055 0.036 0.075 0.062c0.043 0.056 0.065 0.125 0.063 0.196v0.126h0.378v-0.149c0.001-0.087-0.015-0.174-0.047-0.255-0.028-0.076-0.072-0.146-0.127-0.205z"></path>
    <path d="M16.011 26.604c-0.122-0.103-0.275-0.159-0.434-0.16-0.078 0-0.155 0.014-0.228 0.041-0.074 0.027-0.142 0.067-0.201 0.119-0.063 0.057-0.114 0.126-0.148 0.204-0.038 0.089-0.057 0.186-0.055 0.283v1.4c-0.003 0.098 0.016 0.196 0.055 0.287 0.035 0.075 0.085 0.142 0.148 0.196 0.058 0.054 0.127 0.096 0.201 0.123 0.073 0.027 0.15 0.041 0.228 0.041s0.155-0.014 0.228-0.041c0.076-0.028 0.146-0.069 0.206-0.123s0.11-0.121 0.144-0.196c0.039-0.090 0.058-0.188 0.055-0.287v-1.4c0.002-0.097-0.017-0.194-0.055-0.283-0.034-0.077-0.083-0.147-0.144-0.204zM15.833 28.49c0.003 0.037-0.002 0.075-0.015 0.11s-0.034 0.067-0.061 0.093c-0.050 0.042-0.114 0.065-0.18 0.065s-0.129-0.023-0.179-0.065c-0.027-0.026-0.048-0.058-0.061-0.093s-0.018-0.073-0.015-0.11v-1.4c-0.003-0.037 0.002-0.075 0.015-0.11s0.034-0.067 0.061-0.093c0.050-0.042 0.114-0.065 0.179-0.065s0.129 0.023 0.18 0.065c0.027 0.026 0.048 0.058 0.061 0.093s0.018 0.073 0.015 0.11v1.4z"></path>
    <path d="M18.987 29.115v-2.649h-0.367l-0.482 1.403h-0.007l-0.486-1.403h-0.363v2.649h0.379v-1.612h0.007l0.371 1.139h0.189l0.374-1.139h0.007v1.612h0.379z"></path>
    <path d="M21.138 26.651c-0.058-0.065-0.132-0.115-0.214-0.145-0.089-0.029-0.181-0.043-0.274-0.041h-0.562v2.65h0.377v-1.035h0.195c0.118 0.005 0.235-0.020 0.341-0.072 0.086-0.048 0.157-0.118 0.207-0.202 0.044-0.070 0.073-0.149 0.087-0.231 0.015-0.1 0.022-0.2 0.020-0.301 0.004-0.127-0.009-0.254-0.037-0.379-0.025-0.092-0.073-0.176-0.139-0.244zM20.943 27.459c-0.002 0.048-0.014 0.095-0.035 0.138-0.022 0.041-0.056 0.073-0.097 0.093-0.056 0.025-0.117 0.036-0.178 0.033h-0.172v-0.901h0.195c0.059-0.003 0.117 0.009 0.17 0.033 0.039 0.022 0.070 0.057 0.089 0.098 0.021 0.047 0.032 0.097 0.033 0.148 0 0.056 0 0.114 0 0.176s0.004 0.125 0 0.182h-0.004z"></path>
    <path d="M22.926 26.466h-0.309l-0.584 2.649h0.378l0.111-0.569h0.515l0.111 0.569h0.378l-0.598-2.649zM22.578 28.185l0.186-0.96h0.007l0.185 0.96h-0.378z"></path>
    <path d="M25.365 28.062h-0.007l-0.57-1.596h-0.363v2.649h0.377v-1.593h0.008l0.577 1.593h0.355v-2.649h-0.377v1.596z"></path>
    <path d="M27.672 26.466l-0.304 1.053h-0.008l-0.304-1.053h-0.4l0.519 1.53v1.12h0.378v-1.12l0.519-1.53h-0.4z"></path>
    <path d="M12.692 29.863h0.182v0.511h0.124v-0.511h0.181v-0.105h-0.486v0.105z"></path>
    <path d="M14.222 29.759l-0.238 0.615h0.131l0.051-0.14h0.245l0.053 0.14h0.134l-0.244-0.615h-0.131zM14.202 30.13l0.084-0.228 0.084 0.228h-0.167z"></path>
    <path d="M15.734 30.147h0.142v0.079c-0.041 0.033-0.093 0.051-0.146 0.052-0.025 0.001-0.050-0.003-0.072-0.013s-0.043-0.026-0.058-0.045c-0.033-0.047-0.049-0.103-0.046-0.16 0-0.137 0.059-0.205 0.177-0.205 0.031-0.003 0.062 0.005 0.088 0.023s0.044 0.044 0.052 0.075l0.122-0.023c-0.026-0.12-0.113-0.181-0.261-0.181-0.079-0.002-0.156 0.026-0.215 0.079-0.031 0.031-0.055 0.068-0.070 0.109s-0.022 0.085-0.018 0.128c-0.004 0.084 0.025 0.167 0.079 0.231 0.030 0.031 0.067 0.055 0.107 0.071s0.084 0.022 0.127 0.019c0.096 0.003 0.19-0.032 0.261-0.098v-0.243h-0.267v0.104z"></path>
    <path d="M17.278 29.759h-0.125v0.615h0.431v-0.105h-0.306v-0.511z"></path>
    <path d="M18.584 29.759h-0.125v0.615h0.125v-0.615z"></path>
    <path d="M19.86 30.169l-0.252-0.411h-0.121v0.615h0.116v-0.402l0.247 0.402h0.124v-0.615h-0.114v0.411z"></path>
    <path d="M21.014 30.103h0.306v-0.105h-0.306v-0.135h0.33v-0.105h-0.454v0.615h0.467v-0.105h-0.343v-0.166z"></path>
    <path d="M23.812 30.001h-0.242v-0.243h-0.124v0.615h0.124v-0.269h0.242v0.269h0.124v-0.615h-0.124v0.243z"></path>
    <path d="M24.973 30.103h0.307v-0.105h-0.307v-0.135h0.331v-0.105h-0.454v0.615h0.466v-0.105h-0.342v-0.166z"></path>
    <path d="M26.547 30.103c0.107-0.017 0.161-0.073 0.161-0.171 0.003-0.026-0.001-0.053-0.011-0.077s-0.027-0.045-0.049-0.060c-0.056-0.028-0.118-0.040-0.18-0.036h-0.261v0.615h0.124v-0.257h0.024c0.026-0.002 0.053 0.003 0.077 0.014 0.018 0.011 0.033 0.027 0.044 0.045l0.134 0.196h0.148l-0.075-0.12c-0.033-0.059-0.080-0.11-0.136-0.148zM26.423 30.018h-0.091v-0.155h0.097c0.042-0.003 0.085 0.002 0.126 0.015 0.009 0.008 0.016 0.018 0.021 0.029s0.007 0.023 0.006 0.035c-0.001 0.012-0.004 0.024-0.009 0.034s-0.014 0.020-0.023 0.027c-0.041 0.012-0.083 0.017-0.126 0.015z"></path>
    <path d="M27.734 30.103h0.306v-0.105h-0.306v-0.135h0.331v-0.105h-0.455v0.615h0.467v-0.105h-0.342v-0.166z"></path>
</symbol>
<symbol id="icon-email" viewBox="0 0 40 40">
    <path d="M30 10h-20c-1.375 0-2.488 1.125-2.488 2.5l-0.012 15c0 1.375 1.125 2.5 2.5 2.5h20c1.375 0 2.5-1.125 2.5-2.5v-15c0-1.375-1.125-2.5-2.5-2.5zM29.5 15.313l-8.837 5.525c-0.4 0.25-0.925 0.25-1.325 0l-8.838-5.525c-0.313-0.2-0.5-0.537-0.5-0.9 0-0.838 0.913-1.338 1.625-0.9l8.375 5.237 8.375-5.238c0.712-0.438 1.625 0.063 1.625 0.9 0 0.362-0.188 0.7-0.5 0.9z"></path>
</symbol>
<symbol id="icon-facebook" viewBox="0 0 40 40">
    <path d="M26.662 6.641h3.652v-6.36c-0.63-0.087-2.797-0.282-5.32-0.282-5.265 0-8.872 3.312-8.872 9.398v5.602h-5.81v7.11h5.81v17.89h7.123v-17.888h5.575l0.885-7.11h-6.462v-4.898c0.002-2.055 0.555-3.462 3.418-3.462z"></path>
</symbol>
<symbol id="icon-instagram" viewBox="0 0 40 40">
    <path d="M39.961 11.76c-0.094-2.125-0.438-3.586-0.93-4.853-0.508-1.344-1.289-2.547-2.313-3.547-1-1.016-2.211-1.805-3.54-2.305-1.274-0.492-2.727-0.836-4.853-0.93-2.141-0.102-2.821-0.125-8.252-0.125s-6.111 0.024-8.244 0.117c-2.125 0.094-3.587 0.438-4.852 0.93-1.344 0.508-2.548 1.289-3.548 2.313-1.016 1-1.805 2.211-2.305 3.54-0.492 1.274-0.836 2.727-0.93 4.852-0.102 2.141-0.125 2.821-0.125 8.252s0.024 6.11 0.117 8.244c0.094 2.125 0.438 3.586 0.93 4.853 0.508 1.344 1.297 2.547 2.313 3.547 1 1.016 2.211 1.805 3.54 2.305 1.274 0.492 2.727 0.836 4.853 0.93 2.133 0.094 2.813 0.117 8.244 0.117s6.111-0.023 8.244-0.117c2.125-0.094 3.586-0.437 4.852-0.93 2.688-1.039 4.814-3.164 5.853-5.852 0.492-1.274 0.836-2.727 0.93-4.852 0.094-2.134 0.117-2.813 0.117-8.244s-0.008-6.111-0.102-8.244zM36.359 28.091c-0.086 1.954-0.414 3.009-0.688 3.712-0.672 1.742-2.055 3.126-3.798 3.798-0.703 0.274-1.766 0.602-3.712 0.688-2.11 0.094-2.742 0.117-8.079 0.117s-5.978-0.023-8.080-0.117c-1.954-0.086-3.008-0.414-3.712-0.688-0.867-0.321-1.656-0.829-2.297-1.492-0.664-0.649-1.172-1.43-1.493-2.297-0.274-0.703-0.602-1.766-0.687-3.712-0.094-2.11-0.117-2.743-0.117-8.080s0.023-5.978 0.117-8.080c0.086-1.954 0.414-3.008 0.687-3.712 0.321-0.867 0.828-1.656 1.501-2.298 0.648-0.664 1.43-1.172 2.297-1.492 0.703-0.274 1.766-0.602 3.712-0.688 2.11-0.094 2.743-0.117 8.080-0.117 5.345 0 5.978 0.024 8.080 0.117 1.954 0.086 3.009 0.414 3.712 0.688 0.867 0.32 1.656 0.828 2.297 1.492 0.664 0.649 1.172 1.43 1.492 2.298 0.274 0.703 0.601 1.766 0.688 3.712 0.094 2.11 0.117 2.743 0.117 8.080s-0.024 5.962-0.117 8.072z"></path>
    <path d="M20.074 9.728c-5.673 0-10.275 4.602-10.275 10.275s4.603 10.275 10.275 10.275c5.673 0 10.275-4.602 10.275-10.275s-4.602-10.275-10.275-10.275zM20.074 26.669c-3.68 0-6.665-2.985-6.665-6.665s2.985-6.665 6.665-6.665c3.681 0 6.665 2.985 6.665 6.665s-2.985 6.665-6.665 6.665z"></path>
    <path d="M33.155 9.322c0 1.325-1.074 2.399-2.399 2.399s-2.399-1.074-2.399-2.399c0-1.325 1.074-2.399 2.399-2.399s2.399 1.074 2.399 2.399z"></path>
</symbol>
<symbol id="icon-linkedin" viewBox="0 0 40 40">
    <path d="M39.99 40v-0.002h0.010v-14.67c0-7.177-1.545-12.705-9.935-12.705-4.033 0-6.74 2.213-7.845 4.312h-0.117v-3.642h-7.955v26.705h8.283v-13.223c0-3.482 0.66-6.848 4.972-6.848 4.249 0 4.312 3.973 4.312 7.072v13.002h8.275z"></path>
    <path d="M0.66 13.295h8.293v26.705h-8.293v-26.705z"></path>
    <path d="M4.803-0c-2.652 0-4.803 2.152-4.803 4.803s2.152 4.848 4.803 4.848c2.652 0 4.803-2.197 4.803-4.848-0.002-2.652-2.153-4.803-4.803-4.803v0z"></path>
</symbol>
<symbol id="icon-person" viewBox="0 0 40 40">
    <path d="M20 20c3.683 0 6.667-2.983 6.667-6.667s-2.983-6.667-6.667-6.667c-3.683 0-6.667 2.983-6.667 6.667s2.983 6.667 6.667 6.667zM20 23.333c-4.45 0-13.333 2.233-13.333 6.667v1.667c0 0.917 0.75 1.667 1.667 1.667h23.333c0.917 0 1.667-0.75 1.667-1.667v-1.667c0-4.433-8.883-6.667-13.333-6.667z"></path>
</symbol>
<symbol id="icon-phone" viewBox="0 0 40 40">
    <path d="M29.544 23.109l-3.064-0.35c-0.736-0.084-1.459 0.169-1.978 0.688l-2.219 2.219c-3.413-1.737-6.212-4.523-7.948-7.948l2.231-2.231c0.519-0.519 0.772-1.242 0.688-1.978l-0.35-3.039c-0.145-1.218-1.17-2.135-2.4-2.135h-2.087c-1.363 0-2.497 1.134-2.412 2.497 0.639 10.3 8.877 18.526 19.165 19.165 1.363 0.084 2.497-1.049 2.497-2.412v-2.087c0.012-1.218-0.904-2.243-2.123-2.388z"></path>
</symbol>
<symbol id="icon-send" viewBox="0 0 40 40">
    <path d="M40 3.333l-40 18.75 12.783 3.945 19.717-15.404-14.997 16.861 0.012 0.004-0.015-0.004v9.181l7.169-6.969 9.081 2.803 6.25-29.167z"></path>
</symbol>
<symbol id="icon-twitter" viewBox="0 0 40 40">
    <path d="M40 7.597c-1.488 0.652-3.072 1.085-4.725 1.295 1.7-1.015 2.998-2.61 3.608-4.532-1.585 0.945-3.335 1.612-5.2 1.985-1.505-1.603-3.65-2.595-5.99-2.595-4.54 0-8.195 3.685-8.195 8.203 0 0.65 0.055 1.275 0.19 1.87-6.817-0.332-12.85-3.6-16.902-8.578-0.707 1.228-1.123 2.632-1.123 4.145 0 2.84 1.462 5.357 3.642 6.815-1.317-0.025-2.61-0.408-3.705-1.010 0 0.025 0 0.058 0 0.090 0 3.985 2.842 7.295 6.57 8.057-0.667 0.183-1.395 0.27-2.15 0.27-0.525 0-1.055-0.030-1.553-0.14 1.062 3.248 4.078 5.635 7.662 5.713-2.79 2.183-6.332 3.497-10.168 3.497-0.673 0-1.318-0.030-1.963-0.112 3.633 2.342 7.938 3.68 12.58 3.68 15.090 0 23.34-12.5 23.34-23.335 0-0.362-0.013-0.713-0.030-1.060 1.627-1.155 2.995-2.598 4.11-4.258z"></path>
</symbol>
</defs>
</svg>
